# AST/ASF file generated using VICON BodyLanguage
# -----------------------------------------------
:version 1.10
:name VICON
:units
  mass 1.0
  length 0.1
  angle deg
:documentation
   .ast/.asf automatically generated from VICON data using
   VICON BodyBuilder and BodyLanguage model FULLBODY5.MOD
:root
   order TX TY TZ RZ RY RX
   axis XYZ
   position 0 0 0  
   orientation 0 -0 0 
:bonedata
  begin
     id 1 
     name lhipjoint
     direction 0.961525 -0.229516 0.150972 
     length 0.502153 
     axis 0 -0 0  XYZ
  end
  begin
     id 2 
     name lfemur
     direction 0.173648 -0.984808 0  
     length 1.83052  
     axis 0 -0 10  XYZ
    dof rx ry rz
    limits (-180.0 180.0)
           (-180.0 180.0)
           (-180.0 180.0)
  end
  begin
     id 3 
     name ltibia
     direction 0.173629 -0.984811 0   
     length 1.50296   
     axis 0 -0 10   XYZ
    dof rx ry rz
    limits (-180.0 180.0)
           (-180.0 180.0)
           (-180.0 180.0)
  end
  begin
     id 4 
     name lfoot
     direction 7.59329e-012 -0.227408 0.9738   
     length 0.574743   
     axis -90 -1.73656e-015 10   XYZ
    dof rx ry rz
    limits (-180.0 180.0)
           (-180.0 180.0)
           (-180.0 180.0)
  end
  begin
     id 5 
     name ltoes
     direction 7.79885e-012 -4.41741e-011 1   
     length 0.28489   
     axis -90 -1.73656e-015 10   XYZ
    dof rx ry rz
    limits (-180.0 180.0)
           (-180.0 180.0)
           (-180.0 180.0)
  end
  begin
     id 6 
     name rhipjoint
     direction -0.970498 -0.201437 0.132502   
     length 0.572149  
     axis 0 -0 0  XYZ 
  end
  begin
     id 7 
     name rfemur
     direction -0.173648 -0.984808 0   
     length 1.71866   
     axis 0 -0 -10   XYZ
    dof rx ry rz
    limits (-180.0 180.0)
           (-180.0 180.0)
           (-180.0 180.0)
  end
  begin
     id 8 
     name rtibia
     direction -0.173624 -0.984812 0   
     length 1.42623   
     axis 0 -0 -10   XYZ
    dof rx ry rz
    limits (-180.0 180.0)
           (-180.0 180.0)
           (-180.0 180.0)
 end
 begin
     id 9 
     name rfoot
     direction -7.12931e-012 -0.404275 0.914637   
     length 0.524692  
     axis -90 1.73656e-015 -10   XYZ
    dof rx ry rz
    limits (-180.0 180.0)
           (-180.0 180.0)
           (-180.0 180.0)
  end
  begin
     id 10 
     name rtoes
     direction -7.79289e-012 -4.41454e-011 1   
     length 0.254983   
     axis -90 1.73656e-015 -10   XYZ
    dof rx ry rz
    limits (-180.0 180.0)
           (-180.0 180.0)
           (-180.0 180.0)
  end
  begin
     id 11 
     name lowerback
     direction -0.0214086 0.993738 0.109665   
     length 0.417614   
     axis 0 -0 0   XYZ
    dof rx ry rz
    limits (-180.0 180.0)
           (-180.0 180.0)
           (-180.0 180.0)
  end
  begin
     id 12 
     name upperback
     direction 8.15962e-005 0.99996 0.00893412   
     length 0.419234   
     axis 0 -0 0   XYZ
    dof rx ry rz
    limits (-180.0 180.0)
           (-180.0 180.0)
           (-180.0 180.0)
  end
  begin
     id 13 
     name thorax
     direction 0.00826031 0.999067 -0.0423848   
     length 0.424697   
     axis 0 -0 0   XYZ
    dof rx ry rz
    limits (-180.0 180.0)
           (-180.0 180.0)
           (-180.0 180.0)
  end
  begin
     id 14 
     name lowerneck
     direction -0.0196262 0.994272 -0.105058   
     length 0.355877   
     axis 0 -0 0   XYZ
    dof rx ry rz
    limits (-180.0 180.0)
           (-180.0 180.0)
           (-180.0 180.0)
  end
  begin
     id 15 
     name upperneck
     direction 0.000117372 0.999091 0.0426261   
     length 0.351054   
     axis 0 -0 0   XYZ
    dof rx ry rz
    limits (-180.0 180.0)
           (-180.0 180.0)
           (-180.0 180.0)
  end
  begin
     id 16
     name head
     direction 0.00157618 0.999651 0.0263619  
     length 0.374844  
     axis 0 -0 0   XYZ
    dof rx ry rz
    limits (-180.0 180.0)
           (-180.0 180.0)
           (-180.0 180.0)
  end
  begin
     id 17 
     name lshoulderjoint
     direction 0.981627 -0.190809 0  
     length 0.701763  
     axis 0 -0 -11   XYZ
    dof rx ry rz
    limits (-180.0 180.0)
           (-180.0 180.0)
           (-180.0 180.0)
  end
  begin
     id 18 
     name lhumerus
     direction 0.48481 -0.87462 -1.80676e-026   
     length 0.994704   
     axis -180 5.14477e-009 -151   XYZ
    dof rx ry rz
    limits (-180.0 180.0)
           (-180.0 180.0)
           (-180.0 180.0)
  end
  begin
     id 19
     name lradius
     direction 0.48481 -0.87462 -3.2569e-026   
     length 0.617638   
     axis -180 5.14477e-009 -151   XYZ
    dof rx ry rz
    limits (-180.0 180.0)
           (-180.0 180.0)
           (-180.0 180.0)
  end
  begin
     id 20
     name lwrist
     direction 0.48481 -0.87462 -6.73202e-026   
     length 0.308819   
     axis -180 5.14477e-009 -151   XYZ
    dof rx ry rz
    limits (-180.0 180.0)
           (-180.0 180.0)
           (-180.0 180.0)
  end
  begin
     id 21 
     name lhand
     direction 0.478366 -0.863761 -0.158376   
     length 0.291656   
     axis -180 5.14477e-009 -151   XYZ
    dof rx ry rz
    limits (-180.0 180.0)
           (-180.0 180.0)
           (-180.0 180.0)
  end
  begin
     id 22 
     name rshoulderjoint
     direction -0.981627 -0.190809 0   
     length 0.66654  
     axis 0 -0 11   XYZ 
    dof rx ry rz
    limits (-180.0 180.0)
           (-180.0 180.0)
           (-180.0 180.0)
  end
  begin
     id 23 
     name rhumerus
     direction -0.48481 -0.87462 1.77576e-026  
     length 1.15089   
     axis 180 5.14477e-009 151   XYZ
    dof rx ry rz
    limits (-180.0 180.0)
           (-180.0 180.0)
           (-180.0 180.0)
  end
  begin
     id 24 
     name rradius
     direction -0.48481 -0.87462 3.79421e-026   
     length 0.613887   
     axis 180 5.14477e-009 151   XYZ
    dof rx ry rz
    limits (-180.0 180.0)
           (-180.0 180.0)
           (-180.0 180.0)
  end
  begin
     id 25 
     name rwrist
     direction -0.48481 -0.87462 5.43623e-026   
     length 0.306944   
     axis 180 5.14477e-009 151   XYZ
    dof rx ry rz
    limits (-180.0 180.0)
           (-180.0 180.0)
           (-180.0 180.0)
  end
  begin
     id 26
     name rhand
     direction -0.479273 -0.864638 -0.150661   
     length 0.306429   
     axis 180 5.14477e-009 151   XYZ
    dof rx ry rz
    limits (-180.0 180.0)
           (-180.0 180.0)
           (-180.0 180.0)
  end
:hierarchy
  begin
    root lhipjoint rhipjoint lowerback 
    lhipjoint lfemur
    lfemur ltibia
    ltibia lfoot
    lfoot ltoes
    rhipjoint rfemur
    rfemur rtibia
    rtibia rfoot
    rfoot rtoes
    lowerback upperback
    upperback thorax
    thorax lowerneck lshoulderjoint rshoulderjoint
    lowerneck upperneck
    upperneck head
    lshoulderjoint lhumerus
    lhumerus lradius
    lradius lwrist
    lwrist lhand
    rshoulderjoint rhumerus
    rhumerus rradius
    rradius rwrist
    rwrist rhand
  end

:FULLY-SPECIFIED
:DEGREES
2261
root 5.8011 3.49228 -0.295513 -245.562 -75.4246 111.915
lowerback -7.61587 2.26866 2.20953
upperback -2.20013 2.82044 -0.949928
thorax 2.1463 1.38786 -1.95421
lowerneck 13.4129 -0.166939 -3.32674
upperneck -7.69572 -0.720387 1.00781
head -4.46951 -0.317326 0.903452
rshoulderjoint 1.13219 -2.86611 -32.5661
rhumerus -1.35628 -8.5219 -57.7983
rradius 38.1736 1.95604e-013 -4.94974e-014
rwrist -5.63974e-013 9.27709 -2.27201e-013
rhand 10.4479 -8.03029 30.3518
lshoulderjoint 2.85763 10.6084 26.1706
lhumerus -5.25638 13.5541 50.6449
lradius 24.3631 -4.29375e-013 -5.88403e-014
lwrist -1.92509e-013 -7.56646 2.2299e-013
lhand 19.6747 7.36953 -15.9568
rfemur -0.119474 3.95869 14.5081
rtibia -1.27222e-014 -1.59028e-015 -4.77083e-015
rfoot -11.4724 15.8057 -8.33961
rtoes -3.89618e-014 -4.67144e-014 4.13472e-014
lfemur -36.6661 -5.43302 -11.5884
ltibia 9.72412 4.77083e-015 8.74653e-015
lfoot -6.2338 -2.98079 15.5399
ltoes -1.84472e-013 1.09332e-014 -4.21423e-014
2262
root 5.75719 3.48146 -0.294155 -244.614 -75.5202 113.01
lowerback -7.53345 2.34061 2.46611
upperback -2.10755 2.90166 -0.958815
thorax 2.21328 1.43216 -2.10004
lowerneck 13.3746 -0.159449 -3.30922
upperneck -7.74171 -0.703554 1.0272
head -4.47789 -0.310214 0.905419
rshoulderjoint 1.11354 -2.81643 -32.5828
rhumerus -1.06056 -8.30511 -57.8744
rradius 38.2184 1.33583e-013 -1.95405e-013
rwrist 9.56859e-013 9.17198 -6.20186e-013
rhand 10.5148 -7.9581 30.3684
lshoulderjoint 2.85472 10.5453 26.2414
lhumerus -5.40324 14.5781 50.5899
lradius 24.2691 -4.07111e-013 -2.14687e-014
lwrist 7.69214e-013 -7.08926 3.86209e-013
lhand 19.8566 7.00604 -15.2318
rfemur 0.828883 3.95366 14.6301
rtibia 1.11319e-014 2.78299e-015 -2.70347e-014
rfoot -11.9071 15.7589 -8.39002
rtoes 1.29608e-013 -2.16973e-013 3.97569e-014
lfemur -35.3196 -5.00572 -11.5593
ltibia 4.94179 1.59028e-015 2.54444e-014
lfoot -6.1031 -3.16641 14.19
ltoes 2.8625e-013 -9.99887e-014 -9.93923e-014
2263
root 5.71243 3.46976 -0.293129 -243.799 -75.5958 114.051
lowerback -7.50627 2.41096 2.75534
upperback -2.03219 2.97576 -0.951086
thorax 2.29418 1.4729 -2.24594
lowerneck 13.3854 -0.139184 -3.25168
upperneck -7.80281 -0.662819 1.05805
head -4.49949 -0.293235 0.902913
rshoulderjoint 0.972075 -2.47091 -32.483
rhumerus -0.994858 -8.56809 -57.8729
rradius 38.2545 -1.39944e-013 -3.18055e-014
rwrist 5.06164e-013 9.41372 3.86877e-014
rhand 10.6262 -8.17883 30.4039
lshoulderjoint 2.84892 10.4682 26.3175
lhumerus -5.55227 15.9757 50.5662
lradius 24.1967 1.68569e-013 -3.29983e-014
lwrist 3.90687e-013 -6.68906 -1.47308e-013
lhand 20.1025 6.42865 -14.3575
rfemur 1.76575 3.94181 14.8228
rtibia -7.95139e-015 -1.59028e-015 -9.54166e-015
rfoot -12.3647 15.7174 -8.39795
rtoes 7.79236e-014 -8.80616e-014 -3.18055e-015
lfemur -33.7668 -4.61035 -11.477
ltibia -4.13472e-014 3.18055e-015 1.51076e-014
lfoot -4.90824 -3.33449 12.8013
ltoes 6.36111e-014 -5.00937e-014 -7.39479e-014
2264
root 5.66669 3.4578 -0.291559 -243.204 -75.7103 114.773
lowerback -7.50607 2.45552 2.95525
upperback -1.9559 3.02188 -0.968179
thorax 2.38674 1.4998 -2.36905
lowerneck 13.3688 -0.145387 -3.16983
upperneck -7.84859 -0.653026 1.08022
head -4.5113 -0.2918 0.895986
rshoulderjoint 0.978266 -2.49073 -32.4511
rhumerus -0.77961 -8.4848 -57.9065
rradius 38.2571 -8.90555e-014 1.06946e-013
rwrist -2.25718e-013 9.47486 3.12781e-013
rhand 10.725 -8.21488 30.4425
lshoulderjoint 2.83836 10.3867 26.376
lhumerus -5.73584 17.0356 50.4572
lradius 24.1266 2.09917e-013 -2.42517e-014
lwrist -1.23233e-013 -6.45528 -2.30461e-013
lhand 20.2466 6.4162 -13.4196
rfemur 2.7339 3.83425 14.8931
rtibia 1.74931e-014 3.97569e-016 -4.77083e-015
rfoot -12.7154 15.5106 -8.33707
rtoes 4.45278e-014 -2.36554e-014 -3.33958e-014
lfemur -34.242 -4.353 -11.552
ltibia -3.81667e-014 -7.95139e-015 -2.70347e-014
lfoot -6.47887 -3.21177 11.9126
ltoes 1.87653e-013 4.85035e-014 8.34896e-015
2265
root 5.62016 3.44562 -0.290296 -242.87 -75.8278 115.175
lowerback -7.55456 2.45264 3.03023
upperback -1.91492 3.01126 -0.968974
thorax 2.45918 1.49669 -2.41
lowerneck 13.2806 -0.139855 -3.14495
upperneck -7.73296 -0.634786 1.1095
head -4.46153 -0.286275 0.898916
rshoulderjoint 0.962595 -2.45425 -32.4236
rhumerus -0.642102 -8.41525 -57.9116
rradius 38.2505 -4.77083e-014 -1.00585e-013
rwrist 1.45207e-012 9.71313 -3.46882e-013
rhand 10.7068 -8.44406 30.5138
lshoulderjoint 2.83075 10.3586 26.3759
lhumerus -5.89969 18.2414 50.3563
lradius 24.0717 7.63333e-014 1.10127e-013
lwrist 8.34665e-013 -5.97871 2.22257e-013
lhand 20.4191 6.05306 -12.382
rfemur 1.7248 3.63181 14.8939
rtibia 4.31168 -4.77083e-015 -1.43125e-014
rfoot -15.4193 14.9883 -8.83207
rtoes 3.49861e-014 -8.45829e-014 2.8625e-014
lfemur -34.5344 -4.21615 -11.7365
ltibia -2.8625e-014 1.59028e-015 0
lfoot -8.05931 -3.34791 11.4524
ltoes 1.33583e-013 8.34896e-015 -7.39479e-014
2266
root 5.57288 3.43391 -0.289324 -242.689 -75.9725 115.379
lowerback -7.59416 2.43994 2.99117
upperback -1.8974 2.9959 -0.958899
thorax 2.49579 1.4896 -2.37727
lowerneck 13.2639 -0.143814 -3.1174
upperneck -7.66093 -0.630785 1.14403
head -4.43655 -0.287878 0.904537
rshoulderjoint 0.966474 -2.46832 -32.3907
rhumerus -0.576031 -8.50491 -57.892
rradius 38.2145 -1.74931e-014 7.35503e-015
rwrist -5.16437e-014 9.80788 3.22773e-014
rhand 10.8118 -8.49939 30.4823
lshoulderjoint 2.82117 10.3296 26.3668
lhumerus -6.164 19.92 50.2575
lradius 24.0207 -1.90833e-014 -2.50469e-014
lwrist -3.19339e-014 -5.13781 -3.51272e-014
lhand 20.8259 4.88672 -11.1101
rfemur 1.21655 3.37337 14.8346
rtibia 7.55323 -9.54166e-015 -1.43125e-014
rfoot -17.4003 14.4273 -9.0434
rtoes 3.10104e-014 -1.0148e-013 -1.27222e-014
lfemur -34.594 -4.1703 -12.0076
ltibia -2.54444e-014 4.77083e-015 2.94201e-014
lfoot -8.47222 -2.30358 11.3247
ltoes 3.18055e-014 -7.60351e-014 -7.07673e-014
2267
root 5.52437 3.42305 -0.288637 -242.825 -76.1543 115.105
lowerback -7.68767 2.38345 2.74825
upperback -1.90024 2.93684 -0.980467
thorax 2.53012 1.459 -2.26593
lowerneck 13.2376 -0.157692 -3.07242
upperneck -7.52685 -0.637954 1.16815
head -4.39067 -0.295349 0.90468
rshoulderjoint 0.973777 -2.49326 -32.3418
rhumerus -0.583817 -8.66974 -57.8475
rradius 38.1551 -7.95139e-015 2.20651e-014
rwrist 9.67977e-014 9.68999 2.58127e-014
rhand 11.0186 -8.36342 30.421
lshoulderjoint 2.8046 10.3021 26.3191
lhumerus -6.35209 21.066 50.0875
lradius 23.9268 -1.74931e-013 4.13472e-014
lwrist 2.95201e-013 -4.7178 2.40948e-013
lhand 20.9632 4.62984 -9.97595
rfemur 1.08749 2.99905 14.6091
rtibia 9.95896 -9.54166e-015 -2.06736e-014
rfoot -18.8037 13.8962 -9.10652
rtoes -6.36111e-015 -5.26779e-014 0
lfemur -36.3436 -4.27428 -12.4576
ltibia 4.21354 -3.18055e-015 9.54166e-015
lfoot -11.0876 -1.44884 11.7693
ltoes 1.52667e-013 -1.65985e-014 -9.78021e-014
2268
root 5.47465 3.41345 -0.28809 -243.187 -76.3663 114.541
lowerback -7.79091 2.2736 2.38643
upperback -1.93836 2.8148 -0.975868
thorax 2.52323 1.3949 -2.06804
lowerneck 13.2219 -0.148128 -3.1106
upperneck -7.32164 -0.627961 1.20594
head -4.32467 -0.293445 0.920926
rshoulderjoint 0.952898 -2.44221 -32.3223
rhumerus -0.72572 -8.88065 -57.715
rradius 38.0936 -1.41535e-013 8.78628e-014
rwrist -4.84114e-014 9.77668 3.2597e-013
rhand 11.0853 -8.43169 30.3862
lshoulderjoint 2.80989 10.3737 26.2467
lhumerus -6.57141 22.0986 49.9188
lradius 23.8114 3.59403e-013 -1.74931e-014
lwrist -1.22782e-013 -4.2087 -3.26888e-013
lhand 21.106 4.34862 -8.92931
rfemur 1.18295 2.55351 14.3149
rtibia 11.8766 4.77083e-015 0
rfoot -19.7953 13.5392 -9.09359
rtoes 3.18055e-015 -1.78906e-014 -3.49861e-014
lfemur -37.5577 -4.46094 -12.9817
ltibia 7.71496 -3.18055e-015 -6.36111e-015
lfoot -11.8106 0.00112482 12.2069
ltoes 1.97194e-013 -2.83268e-014 5.32743e-014
2269
root 5.42331 3.40511 -0.287786 -243.768 -76.5682 113.697
lowerback -7.97497 2.16338 1.94733
upperback -1.9944 2.69725 -0.993306
thorax 2.54189 1.33235 -1.84675
lowerneck 13.1621 -0.152392 -3.13463
upperneck -7.04695 -0.633374 1.23875
head -4.22989 -0.299775 0.934061
rshoulderjoint 0.957175 -2.45267 -32.3264
rhumerus -0.925195 -9.03387 -57.6666
rradius 38.0171 5.88403e-014 -9.36276e-014
rwrist 8.91201e-013 9.93638 -3.74563e-013
rhand 11.0521 -8.56119 30.5288
lshoulderjoint 2.8202 10.4564 26.1861
lhumerus -6.83963 23.5648 49.7863
lradius 23.675 -3.49861e-014 5.68524e-014
lwrist 5.5779e-013 -3.74767 1.62556e-013
lhand 21.4006 3.6252 -7.86742
rfemur 1.38464 2.0807 13.9527
rtibia 13.5174 3.97569e-015 3.97569e-015
rfoot -20.5018 13.2337 -9.00976
rtoes -1.59028e-015 6.77856e-014 0
lfemur -38.236 -4.69854 -13.5308
ltibia 10.3804 6.36111e-015 -2.38542e-015
lfoot -11.4119 0.289618 12.5051
ltoes -1.68569e-013 2.84262e-014 7.95139e-014
2270
root 5.37021 3.39784 -0.288023 -244.548 -76.7282 112.724
lowerback -8.28736 2.05894 1.51943
upperback -2.07819 2.5833 -0.965604
thorax 2.60313 1.27098 -1.58128
lowerneck 13.1813 -0.169819 -3.18807
upperneck -6.76781 -0.665651 1.26264
head -4.14592 -0.318403 0.951376
rshoulderjoint 0.942468 -2.41248 -32.3463
rhumerus -1.22549 -9.28355 -57.549
rradius 37.9184 -3.18055e-014 -9.64106e-014
rwrist 9.78705e-013 10.043 -2.87474e-013
rhand 10.9997 -8.65084 30.7322
lshoulderjoint 2.82701 10.4863 26.1801
lhumerus -7.06679 24.7122 49.7107
lradius 23.5201 -1.36764e-013 8.22969e-014
lwrist 7.01688e-013 -3.3101 2.88321e-013
lhand 21.5291 3.22929 -7.01413
rfemur 1.65027 1.60895 13.6592
rtibia 14.9041 -3.18055e-015 -9.54166e-015
rfoot -20.906 12.9449 -8.8488
rtoes 3.81667e-014 -1.31595e-013 1.90833e-014
lfemur -38.6218 -4.90669 -14.0111
ltibia 12.7182 6.36111e-015 1.66979e-014
lfoot -10.212 0.30594 12.1535
ltoes -1.27222e-014 -4.56211e-014 -8.98507e-014
